<svg width="15" height="15" viewBox="0 0 15 15" fill="none" xmlns="http://www.w3.org/2000/svg">
<path d="M7.12232 2.4383L7.5 2.87365L7.87768 2.4383C8.19488 2.07267 8.67404 1.57735 9.23806 1.177C9.80862 0.771995 10.4157 0.5 10.9991 0.5C12.1305 0.5 12.9844 0.881939 13.5621 1.54215C14.1474 2.21106 14.5 3.22423 14.5 4.57361C14.5 5.61967 14.0863 6.60652 13.6393 7.36323C13.2335 8.04996 12.8237 8.50968 12.7231 8.62251C12.7174 8.62891 12.7127 8.63419 12.709 8.63834L12.709 8.63833L7.56102 14.4628L7.5609 14.463C7.52944 14.4986 7.50635 14.5 7.5 14.5C7.49366 14.5 7.47064 14.4986 7.43926 14.4631C7.43921 14.4631 7.43916 14.463 7.4391 14.463L2.28301 8.61926L2.27478 8.60993L2.2661 8.60102C2.2662 8.60113 2.26614 8.60107 2.26591 8.60082C2.26455 8.5994 2.25731 8.59179 2.24423 8.57753C2.22966 8.56165 2.20902 8.53878 2.18321 8.50931C2.13157 8.45036 2.0596 8.36543 1.97423 8.25747C1.80317 8.04114 1.58025 7.73479 1.35956 7.36177C0.913762 6.60827 0.5 5.62141 0.5 4.57361C0.5 3.22423 0.852558 2.21106 1.43787 1.54215C2.01557 0.881939 2.86946 0.5 4.00092 0.5C4.58432 0.5 5.19138 0.771995 5.76194 1.177C6.32596 1.57735 6.80512 2.07267 7.12232 2.4383Z" stroke="#657786"/>
</svg>
