<svg viewBox="0 0 22 25" fill="none" xmlns="http://www.w3.org/2000/svg">
<path d="M21.3688 2.73067C20.8909 2.40371 20.8909 2.40371 20.64 1.92693C20.508 1.67609 20.4597 1.41836 20.4278 1.24771C20.3978 1.08781 20.3828 1.00756 20.3004 1.00756C20.2789 1.00756 20.2614 1.01556 20.2472 1.02617C20.2352 0.990595 20.2223 0.942744 20.2124 0.906477C20.1672 0.738999 20.1246 0.580898 20.0086 0.580898L19.9958 0.581657C19.8748 0.595584 19.8559 0.721555 19.8446 0.796779C19.844 0.801122 19.8432 0.805742 19.8426 0.810569C19.8188 0.761063 19.8029 0.662603 19.7924 0.598274C19.768 0.447412 19.7427 0.291449 19.6176 0.291449C19.4995 0.291449 19.4695 0.413351 19.4516 0.486162C19.4481 0.500296 19.4435 0.518913 19.4389 0.533323C19.3909 0.492229 19.3675 0.380325 19.3483 0.288622C19.3201 0.153343 19.2879 0 19.1549 0C19.1161 0 19.0818 0.0138588 19.0557 0.0401975C18.994 0.101976 18.9944 0.216708 18.9948 0.317788C18.9949 0.335508 18.995 0.357502 18.9943 0.37736C18.9723 0.360329 18.947 0.339024 18.9271 0.322407C18.8133 0.226912 18.733 0.164375 18.657 0.164375C18.6315 0.164375 18.5473 0.17389 18.5338 0.295862C18.5192 0.426865 18.5943 0.562971 18.6605 0.683012C18.692 0.740171 18.7448 0.835873 18.7356 0.861591C18.7074 0.875726 18.6477 0.889378 18.5784 0.905167C18.3253 0.962878 17.854 1.07037 17.5198 1.53006C17.3662 1.74125 17.1562 1.9281 16.9338 2.12612C16.5595 2.45922 16.1725 2.80369 15.9582 3.33122C15.809 3.69831 15.6397 4.33843 15.4604 5.01613C15.2382 5.85614 15.0085 6.7247 14.8241 7.02346C14.2455 7.96103 12.8432 8.43644 10.6563 8.4365C9.98197 8.4365 9.38384 8.38955 9.02647 8.36149C8.90374 8.35183 8.80556 8.34418 8.7382 8.34094C8.39614 8.22317 8.1424 8.02998 7.98403 7.76673C7.65817 7.22513 7.1194 5.92482 6.59835 4.66739C5.61293 2.28912 5.27328 1.5486 5.06802 1.5486L5.05816 1.54909C4.89613 1.56446 4.85621 1.69381 4.84959 1.80778C4.8176 1.75752 4.78609 1.70622 4.76775 1.6765C4.47402 1.19937 4.13603 0.936677 3.8159 0.936677C3.66807 0.936677 3.52921 0.995215 3.41434 1.10595C3.13882 1.37168 3.08331 1.56563 3.0387 1.72153C3.00278 1.84729 2.97679 1.93817 2.84847 2.04338C2.81021 2.07475 2.71064 2.09965 2.60529 2.12612C2.30398 2.20162 1.84857 2.31566 1.82009 2.81417C1.78493 3.42975 1.61035 3.65459 1.47004 3.83531C1.32331 4.02423 1.19665 4.18736 1.29277 4.65339C1.36179 4.9878 1.36365 5.07702 0.998631 5.60682C0.653953 6.10719 -0.458751 8.42099 0.209782 9.42869C0.43304 9.76537 0.358161 10.0874 0.244808 10.5751C0.0580931 11.378 -0.224048 12.591 0.698908 14.8694C1.23795 16.2003 2.3246 17.0239 2.97382 17.5163C3.09779 17.6104 3.20494 17.6907 3.29196 17.7627C3.81163 18.1923 5.10525 18.8262 6.23154 18.8262C6.48831 18.8262 6.72729 18.7895 6.9422 18.7246C7.17767 18.6536 7.45767 18.9062 7.82744 19.2518C8.33898 19.73 9.04392 20.3799 10.1641 20.6886C10.3038 21.1742 10.3982 21.5224 10.3995 21.5783C10.3886 21.6979 10.0673 21.8762 9.72714 22.065C9.48437 22.1997 9.35688 22.3478 9.38618 22.461C9.40797 22.5451 9.50436 22.579 9.62778 22.5404C9.66039 22.5303 9.69239 22.5189 9.72493 22.5073C9.83725 22.4674 9.95336 22.426 10.1301 22.426C10.2434 22.426 10.3693 22.4426 10.5149 22.4769C10.7885 22.5412 10.8578 22.632 10.9312 22.7281C11.0028 22.8219 11.084 22.9281 11.3299 22.9958C11.4238 23.0217 11.525 23.0451 11.632 23.0698C12.0496 23.1662 12.5229 23.2756 12.6673 23.5676C12.6848 23.6029 12.6957 23.6325 12.7045 23.6562C12.7236 23.708 12.7475 23.7724 12.8294 23.7724C12.8517 23.7724 12.8772 23.7673 12.9145 23.7552C13.0126 23.7234 13.1097 23.6236 13.1507 23.5125C13.1872 23.4133 13.178 23.3111 13.1248 23.2246C13.0388 23.0849 12.8979 22.9661 12.7473 22.8695C12.8702 22.8875 13.0022 22.9005 13.1383 22.9038C13.7059 22.9176 14.1133 23.0182 14.3791 23.1038C14.3021 23.2265 14.0468 23.4009 13.7783 23.5839C13.5501 23.7395 13.439 23.8927 13.4733 24.004C13.4994 24.0887 13.6004 24.1175 13.723 24.0665C13.7545 24.0534 13.7853 24.0392 13.8167 24.0246C13.9475 23.964 14.0829 23.9012 14.331 23.9012C14.4123 23.9012 14.503 23.9081 14.6005 23.9218C14.8788 23.9607 14.9562 24.0448 15.0382 24.1338C15.118 24.2206 15.2087 24.319 15.4598 24.3638C15.5556 24.3809 15.6584 24.3949 15.7672 24.4097C16.1919 24.4674 16.6733 24.5328 16.8439 24.8104C16.8645 24.844 16.8781 24.8724 16.889 24.8953C16.9125 24.9444 16.9392 25.0001 17.0116 25C17.0371 25 17.0648 24.9926 17.1071 24.9745C17.2019 24.9339 17.2895 24.8256 17.3201 24.7112C17.3474 24.6091 17.3289 24.5082 17.268 24.427C17.1695 24.2957 17.0181 24.1902 16.8592 24.1078C16.9858 24.1148 17.1248 24.1148 17.2519 24.1063C17.3657 24.0986 17.4794 24.0946 17.5898 24.0946C18.1637 24.0946 18.5524 24.1996 18.7392 24.25C18.8139 24.2702 18.8551 24.2813 18.8854 24.2813C18.9289 24.2813 18.9499 24.2578 18.9586 24.2438C18.9672 24.2298 18.9788 24.2005 18.9595 24.1618C18.8702 23.9832 18.7048 23.7906 18.1049 23.5928C17.8997 23.5251 17.5308 23.4934 17.2052 23.4653C17.0351 23.4506 16.8353 23.4334 16.7181 23.4131C16.7838 23.39 16.8575 23.3767 16.9121 23.3669C16.9969 23.3516 17.0584 23.3405 17.0597 23.274C17.0611 23.1984 16.9998 23.1848 16.7049 23.1198C16.5891 23.0942 16.479 23.0818 16.368 23.0818C16.2331 23.0818 16.1233 23.1005 16.0352 23.1156C15.9433 23.1314 15.8712 23.1421 15.8272 23.1262C15.7053 23.0012 15.0395 21.5589 14.4688 20.2813C14.7439 20.1811 15.0247 20.0683 15.3114 19.9415C15.436 19.9082 15.5511 19.8909 15.6633 19.8578C17.6671 19.2671 20.8047 16.9067 21.2362 12.8251C21.7036 8.40175 20.774 6.71139 20.4685 6.15594C20.0495 5.39411 19.7231 4.42662 20.0633 3.99561C20.3625 3.6166 20.3415 3.14823 20.3302 2.89656C20.328 2.84582 20.3254 2.78962 20.3272 2.75949C20.3333 2.75901 20.3413 2.75866 20.3514 2.75866C20.4646 2.75866 20.6916 2.79921 20.8918 2.83492C21.0768 2.86795 21.2366 2.89656 21.3156 2.89656C21.3372 2.89656 21.4033 2.89656 21.4215 2.83789C21.4336 2.79893 21.4158 2.76294 21.3688 2.73067ZM11.5298 20.8655C12.1244 20.8655 12.7699 20.7767 13.4598 20.5974C13.7596 21.3404 14.0598 22.0951 14.2387 22.5664C14.1773 22.5352 14.1098 22.5033 14.0347 22.4706C13.8367 22.3844 13.4723 22.319 13.1507 22.2612C12.9826 22.231 12.785 22.1955 12.6703 22.1645C12.7378 22.1475 12.8124 22.141 12.8676 22.1363C12.9536 22.1289 13.0157 22.1234 13.0231 22.0574C13.0315 21.9822 12.9716 21.9631 12.684 21.8712C12.526 21.8207 12.3721 21.7961 12.2133 21.7961C12.1392 21.7961 12.0745 21.8012 12.0175 21.8056C11.9734 21.8091 11.9355 21.8121 11.9019 21.8121C11.8606 21.8121 11.8317 21.8074 11.8094 21.7971C11.7578 21.7335 11.6133 21.3694 11.428 20.864C11.4616 20.8646 11.4956 20.8655 11.5298 20.8655Z" fill="#0084B4"/>
</svg>
