<?xml version="1.0" standalone="no"?>
<!DOCTYPE svg PUBLIC "-//W3C//DTD SVG 20010904//EN"
 "http://www.w3.org/TR/2001/REC-SVG-20010904/DTD/svg10.dtd">
<svg version="1.0" xmlns="http://www.w3.org/2000/svg"
 width="800.000000pt" height="800.000000pt" viewBox="0 0 800.000000 800.000000"
 preserveAspectRatio="xMidYMid meet">
<metadata>
Created by potrace 1.14, written by Peter Selinger 2001-2017
</metadata>
<g transform="translate(0.000000,800.000000) scale(0.100000,-0.100000)"
fill="#000000" stroke="none">
<path d="M6579 7984 c-15 -18 -20 -36 -21 -76 l-2 -27 -35 28 c-49 39 -75 45
-96 25 -22 -23 -14 -73 24 -149 16 -33 26 -61 23 -62 -9 -3 -122 -33 -142 -38
-8 -2 -16 -4 -17 -5 -2 -2 -6 -3 -10 -4 -23 -6 -103 -51 -103 -58 0 -4 -5 -8
-10 -8 -14 0 -56 -42 -125 -125 -32 -38 -62 -72 -66 -75 -45 -34 -244 -224
-289 -276 -45 -52 -115 -168 -126 -209 -1 -5 -12 -34 -23 -63 -12 -28 -22 -55
-22 -60 -1 -4 -3 -11 -5 -17 -7 -23 -36 -129 -39 -144 -2 -9 -4 -16 -5 -16 -1
0 -3 -7 -5 -15 -2 -8 -16 -58 -30 -110 -34 -124 -34 -127 -39 -148 -2 -9 -10
-37 -17 -62 -7 -25 -13 -49 -15 -55 -1 -8 -21 -79 -29 -105 -1 -3 -5 -18 -9
-35 -33 -123 -67 -222 -107 -310 -28 -60 -27 -59 -109 -144 -65 -67 -134 -118
-228 -165 -51 -26 -238 -92 -282 -100 -14 -3 -25 -5 -25 -6 0 -2 -26 -8 -70
-15 -22 -3 -47 -8 -55 -10 -8 -2 -37 -7 -65 -11 -27 -3 -59 -8 -69 -10 -95
-18 -614 -25 -821 -11 -49 4 -126 9 -169 12 -44 3 -85 10 -93 16 -7 6 -13 8
-13 5 0 -4 -13 2 -29 13 -15 11 -31 18 -34 15 -8 -8 -147 133 -147 150 0 8 -3
16 -7 18 -10 4 -93 170 -93 185 0 6 -3 13 -7 15 -5 2 -18 26 -29 53 -96 224
-195 453 -203 465 -4 9 -12 30 -16 48 -3 18 -11 32 -16 32 -5 0 -9 7 -9 15 0
8 -9 34 -19 58 -26 59 -165 391 -166 397 -1 3 -8 21 -17 40 -8 19 -28 64 -43
100 -15 36 -36 85 -47 110 -11 25 -27 61 -35 80 -41 93 -128 268 -147 294 -41
57 -51 66 -76 66 -34 0 -47 -10 -60 -45 l-11 -29 -20 34 c-11 18 -27 39 -35
47 -8 8 -14 18 -14 23 0 15 -102 110 -145 135 -63 37 -132 43 -188 16 -66 -32
-133 -113 -160 -193 -44 -129 -60 -146 -157 -168 -163 -38 -237 -106 -247
-230 -11 -134 -47 -232 -119 -327 -20 -26 -41 -59 -46 -73 -13 -32 -17 -150
-7 -171 24 -47 14 -154 -17 -190 -8 -8 -14 -23 -14 -31 0 -9 -3 -18 -8 -20
-26 -11 -194 -320 -227 -418 -1 -3 -7 -18 -13 -33 -7 -16 -12 -34 -12 -41 0
-7 -3 -16 -7 -20 -17 -16 -73 -215 -96 -337 -20 -108 -19 -250 3 -329 9 -36
34 -97 55 -137 32 -62 37 -80 36 -135 0 -34 -3 -74 -6 -87 -2 -14 -16 -79 -30
-145 -35 -162 -38 -179 -40 -196 -10 -69 -16 -156 -17 -242 -1 -112 5 -180 27
-313 4 -24 22 -111 30 -143 3 -12 7 -30 9 -40 9 -42 29 -108 37 -127 5 -11 11
-29 12 -40 2 -11 7 -27 10 -35 24 -62 51 -146 49 -152 -1 -5 2 -8 8 -8 5 0 10
-7 10 -15 0 -40 171 -355 209 -385 3 -3 22 -25 41 -50 92 -119 226 -247 405
-388 44 -34 87 -69 96 -76 9 -7 23 -17 31 -22 9 -5 35 -25 58 -44 61 -51 162
-113 268 -165 51 -25 94 -45 96 -45 2 0 21 -8 42 -17 22 -9 41 -17 44 -18 3 0
28 -8 55 -18 28 -9 55 -17 60 -18 6 -1 21 -6 35 -11 14 -5 45 -13 70 -18 25
-5 56 -12 70 -15 111 -24 285 -23 380 1 84 21 113 17 176 -24 33 -22 76 -55
95 -73 39 -39 192 -176 228 -205 13 -10 29 -25 37 -32 60 -57 383 -242 423
-242 5 0 22 -5 38 -11 15 -6 29 -10 31 -10 1 1 15 -5 31 -13 30 -16 27 -9 82
-220 12 -48 15 -75 8 -87 -8 -17 -120 -99 -133 -99 -3 0 -29 -14 -58 -32 -69
-41 -127 -96 -123 -117 2 -9 4 -21 4 -28 2 -23 41 -24 111 -2 76 23 127 27
205 15 59 -9 133 -42 158 -70 54 -62 64 -72 87 -83 38 -19 171 -54 208 -56 6
0 12 -4 12 -9 0 -5 4 -7 9 -4 10 6 108 -25 161 -52 48 -23 73 -49 99 -99 26
-53 34 -57 74 -42 36 13 73 59 80 99 9 49 -37 118 -107 161 l-30 18 65 -4 c35
-3 100 -7 144 -10 114 -7 226 -27 293 -52 22 -9 22 -9 3 -28 -27 -29 -50 -47
-138 -109 -92 -65 -119 -93 -128 -129 -10 -39 10 -59 52 -52 18 3 41 9 51 14
21 12 51 21 56 18 1 -1 10 4 18 10 21 18 203 11 248 -9 19 -9 57 -36 85 -62
37 -34 62 -48 100 -56 66 -14 81 -16 140 -24 214 -30 289 -63 336 -146 25 -45
40 -48 86 -20 46 28 60 62 54 133 -1 21 -83 103 -112 112 -50 16 -3 22 174 20
105 -1 208 -5 227 -9 19 -4 77 -16 128 -27 99 -22 120 -18 108 19 -18 54 -170
160 -253 175 -10 2 -36 9 -58 15 -55 15 -157 27 -300 37 -74 5 -126 21 -73 23
43 2 62 9 72 26 13 20 -1 31 -54 45 -91 25 -202 30 -279 12 -36 -8 -46 -6 -60
8 -20 20 -172 326 -265 534 -14 31 -37 81 -50 110 -118 258 -117 257 -98 264
9 3 71 27 137 53 127 51 149 58 191 66 37 7 184 58 222 78 18 9 32 14 32 12 0
-6 181 89 232 121 21 12 40 23 43 23 14 0 245 166 340 245 63 52 269 257 320
318 22 27 45 54 50 60 6 7 24 30 40 52 17 22 36 46 43 53 6 7 12 17 12 21 0 4
8 16 18 27 25 28 92 132 92 144 0 5 3 10 8 10 4 0 12 10 17 23 21 43 60 112
68 118 5 3 9 10 9 15 0 5 14 38 31 74 17 36 32 67 33 70 0 3 10 25 21 50 11
25 35 91 53 145 18 55 37 109 41 120 5 11 11 31 13 45 3 14 5 26 7 28 1 1 2 5
3 10 15 65 20 89 22 97 1 6 3 12 4 15 3 9 8 35 15 75 3 22 8 51 11 65 10 60
20 146 29 250 4 41 8 92 10 113 24 236 24 827 1 967 -2 14 -7 52 -10 85 -3 33
-8 69 -10 80 -2 11 -7 43 -10 70 -4 28 -14 81 -23 119 -8 37 -16 73 -17 80 -2
6 -6 29 -11 50 -4 21 -16 62 -27 90 -11 28 -21 60 -23 71 -3 11 -12 38 -21 60
-9 22 -23 56 -31 75 -17 41 -112 230 -123 245 -13 18 -87 208 -104 266 -46
162 -41 263 17 354 66 103 80 152 82 300 1 101 -9 93 96 82 30 -4 62 -8 70
-11 18 -6 83 -16 132 -20 51 -4 65 15 34 48 -13 14 -27 26 -31 26 -17 0 -114
87 -139 124 -67 100 -111 213 -132 339 -7 44 -33 76 -48 61 -3 -4 -13 20 -23
52 -19 67 -33 84 -66 84 -17 0 -29 -9 -41 -32 -12 -26 -16 -29 -17 -13 -1 11
-3 27 -5 35 -2 8 -6 28 -9 44 -3 17 -14 39 -25 49 -19 19 -21 19 -45 3 -14 -9
-26 -25 -26 -36 0 -38 -19 -20 -35 32 -8 28 -15 57 -15 63 0 16 -33 45 -52 45
-9 0 -22 -7 -29 -16z m-1782 -6604 c6 -14 26 -61 43 -105 18 -44 38 -93 45
-110 6 -16 25 -61 40 -100 15 -38 31 -79 36 -90 19 -44 69 -180 69 -187 0 -5
-17 0 -39 11 -21 11 -49 23 -62 26 -66 15 -258 56 -289 60 -98 15 -114 26 -44
31 38 2 56 18 47 40 -3 7 -44 26 -91 41 -73 23 -103 27 -190 26 -119 -2 -104
-15 -166 147 -20 52 -41 106 -47 119 -5 13 -8 26 -5 29 3 2 47 6 98 8 51 1
111 5 133 8 22 3 63 8 90 12 28 3 61 8 75 10 14 3 34 7 45 8 76 14 95 18 135
30 57 17 62 16 77 -14z"/>
</g>
</svg>
